<?xml version="1.0" encoding="UTF-8" standalone="no"?>
<!DOCTYPE svg PUBLIC "-//W3C//DTD SVG 1.1//EN" "http://www.w3.org/Graphics/SVG/1.1/DTD/svg11.dtd">
<svg width="100%" height="100%" viewBox="0 0 800 800" version="1.1" xmlns="http://www.w3.org/2000/svg" xmlns:xlink="http://www.w3.org/1999/xlink" xml:space="preserve" xmlns:serif="http://www.serif.com/" style="fill-rule:evenodd;clip-rule:evenodd;stroke-linejoin:round;stroke-miterlimit:2;">
    <g transform="matrix(0.966788,0,0,0.966788,13.2847,13.2847)">
        <path d="M355.614,340.611L385.595,434.503L287.741,434.503L317.155,340.611C323.945,317.986 329.598,291.403 335.252,269.344L336.383,269.344C342.041,291.405 348.259,317.42 355.614,340.611ZM799.219,133.855L799.219,666.147C799.219,739.337 739.336,799.22 666.145,799.22L133.855,799.22C60.664,799.219 0.781,739.336 0.781,666.145L0.781,133.855C0.781,60.664 60.664,0.781 133.855,0.781L666.147,0.781C739.336,0.781 799.219,60.664 799.219,133.855ZM506.634,595.133L382.761,213.919L293.964,213.919L171.794,595.133L243.627,595.133L276.434,487.102L397.473,487.102L431.977,595.133L506.634,595.133ZM624.25,319.683L554.113,319.683L554.113,595.133L624.25,595.133L624.25,319.683ZM628.206,242.762C627.641,221.269 612.938,204.869 589.18,204.869C565.989,204.869 550.155,221.269 550.155,242.762C550.155,263.692 565.423,280.092 588.614,280.092C612.936,280.091 628.206,263.691 628.206,242.762Z" style="fill:rgb(255,164,121);fill-rule:nonzero;"/>
    </g>
</svg>
