<?xml version="1.0" encoding="UTF-8" standalone="no"?>
<!DOCTYPE svg PUBLIC "-//W3C//DTD SVG 1.1//EN" "http://www.w3.org/Graphics/SVG/1.1/DTD/svg11.dtd">
<svg width="100%" height="100%" viewBox="0 0 800 800" version="1.1" xmlns="http://www.w3.org/2000/svg" xmlns:xlink="http://www.w3.org/1999/xlink" xml:space="preserve" xmlns:serif="http://www.serif.com/" style="fill-rule:evenodd;clip-rule:evenodd;stroke-linecap:round;stroke-linejoin:round;">
    <g transform="matrix(1.19717,0,0,1.19717,-78.8676,-78.5578)">
        <g id="SVGRepo_iconCarrier">
            <path d="M400,100L300,100C244.772,100 200,144.772 200,200C200,255.228 244.772,300 300,300M400,100L400,300M400,100L500,100C555.23,100 600,144.772 600,200C600,255.228 555.23,300 500,300M400,300L300,300M400,300L500,300M400,300L400,500M300,300C244.772,300 200,344.77 200,400C200,455.23 244.772,500 300,500M500,300C555.23,300 600,344.77 600,400C600,455.23 555.23,500 500,500C444.77,500 400,455.23 400,400C400,344.77 444.77,300 500,300ZM400,500L300,500M400,500L400,600C400,655.23 355.23,700 300,700C244.772,700 200,655.23 200,600C200,544.77 244.772,500 300,500" style="fill:none;fill-rule:nonzero;stroke:rgb(255,164,121);stroke-width:66.67px;"/>
        </g>
    </g>
</svg>
