<?xml version="1.0" encoding="UTF-8" standalone="no"?>
<!DOCTYPE svg PUBLIC "-//W3C//DTD SVG 1.1//EN" "http://www.w3.org/Graphics/SVG/1.1/DTD/svg11.dtd">
<svg width="100%" height="100%" viewBox="0 0 800 800" version="1.1" xmlns="http://www.w3.org/2000/svg" xmlns:xlink="http://www.w3.org/1999/xlink" xml:space="preserve" xmlns:serif="http://www.serif.com/" style="fill-rule:evenodd;clip-rule:evenodd;stroke-linejoin:round;stroke-miterlimit:2;">
    <g transform="matrix(0.966788,0,0,0.966788,13.2847,13.2848)">
        <path d="M356.18,326.189C356.18,370.87 324.503,396.325 272.469,396.325C258.323,396.325 247.017,395.756 238.531,393.495L238.531,264.539C245.887,262.841 259.461,261.144 278.688,261.144C326.77,261.144 356.18,283.769 356.18,326.189ZM799.219,133.855L799.219,666.147C799.219,739.337 739.336,799.22 666.145,799.22L133.855,799.22C60.664,799.219 0.781,739.336 0.781,666.145L0.781,133.855C0.781,60.664 60.664,0.781 133.855,0.781L666.147,0.781C739.336,0.781 799.219,60.664 799.219,133.855ZM425.745,323.359C425.745,287.73 411.047,257.752 388.422,239.087C364.095,218.723 326.772,207.977 275.862,207.977C228.917,207.977 194.414,211.372 169.528,215.897L169.528,592.019L238.534,592.019L238.534,448.356C247.586,450.058 259.464,450.623 272.472,450.623C321.68,450.623 365.227,437.608 392.947,409.902C414.438,389.536 425.745,359.558 425.745,323.359ZM630.473,312.05C624.814,310.916 620.858,310.352 614.067,310.352C584.652,310.352 552.417,330.15 538.842,369.175L536.581,369.175L534.32,316.572L473.802,316.572C475.491,341.458 476.062,368.044 476.062,405.373L476.062,592.019L545.627,592.019L545.627,449.484C545.627,441.572 546.758,434.216 547.887,427.997C554.111,396.889 576.738,375.395 610.108,375.395C618.595,375.395 624.812,376.527 630.472,377.656L630.472,312.05L630.473,312.05Z" style="fill:rgb(255,164,121);fill-rule:nonzero;"/>
    </g>
</svg>
