<?xml version="1.0" encoding="UTF-8" standalone="no"?>
<!DOCTYPE svg PUBLIC "-//W3C//DTD SVG 1.1//EN" "http://www.w3.org/Graphics/SVG/1.1/DTD/svg11.dtd">
<svg width="100%" height="100%" viewBox="0 0 800 800" version="1.1" xmlns="http://www.w3.org/2000/svg" xmlns:xlink="http://www.w3.org/1999/xlink" xml:space="preserve" xmlns:serif="http://www.serif.com/" style="fill-rule:evenodd;clip-rule:evenodd;stroke-linejoin:round;stroke-miterlimit:2;">
    <g transform="matrix(1.00195,0,0,1.00195,-0.781709,-0.781652)">
        <path d="M796.88,436.941C792.195,403.977 780.778,372.716 762.936,344.036C747.373,319.006 727.406,296.745 703.573,277.825L703.637,277.766L453.333,85.517C453.125,85.336 452.911,85.167 452.769,85.069C444.445,78.694 433.178,75.186 421.053,75.186C408.914,75.186 397.206,78.702 388.103,85.088C378.317,91.923 372.723,100.994 372.333,110.65C371.975,119.656 376.272,128.323 384.464,135.081C400.573,147.791 416.648,160.78 432.742,173.781C448.363,186.406 464.458,199.408 480.475,212.066L173.892,211.858C138.831,211.858 114.958,228.322 110.047,255.886C107.889,267.959 111.697,281.234 120.209,291.402C129.241,302.181 142.353,308.127 157.13,308.127L180.502,308.141C212.789,308.141 245.219,308.062 277.605,307.984L308.489,307.912L30.241,513.769L29.136,514.575C13.594,526.491 3.419,543.191 1.223,560.395C-0.441,573.43 2.6,585.341 10.02,594.853C18.864,606.192 32.672,612.43 48.903,612.43C64.848,612.43 81.119,606.388 94.738,595.386L244.997,472.417C244.355,478.422 243.575,487.231 243.664,493.625C243.833,503.748 247.083,524.061 252.228,540.552C262.859,574.444 280.767,605.452 305.452,632.683C331.136,661.013 362.417,683.477 398.42,699.434C436.484,716.269 477.4,724.814 520.039,724.814L520.434,724.814C563.209,724.711 604.256,716.03 642.442,699.005C678.505,682.858 709.772,660.303 735.359,631.975C760.012,604.606 777.894,573.547 788.505,539.683C793.748,522.931 797.128,505.589 798.531,488.116C799.842,471.195 799.278,453.977 796.88,436.941ZM523.158,599.377C429.186,599.377 352.983,531.209 352.983,447.116C352.983,363.03 429.188,294.862 523.158,294.862C617.128,294.862 693.325,363.03 693.325,447.116C693.327,531.209 617.128,599.377 523.158,599.377ZM621.292,433.736C622.677,458.836 612.652,482.139 595.048,499.391C577.141,516.966 551.586,528.005 523.014,528.005C494.45,528.005 468.894,516.966 450.98,499.391C433.383,482.139 423.378,458.838 424.755,433.756C426.106,409.377 437.998,387.856 455.911,372.619C473.525,357.636 497.178,348.494 523.013,348.494C548.853,348.494 572.498,357.638 590.114,372.619C608.031,387.856 619.928,409.363 621.292,433.736Z" style="fill:rgb(255,164,121);fill-rule:nonzero;"/>
    </g>
</svg>
