<?xml version="1.0" encoding="UTF-8" standalone="no"?>
<!DOCTYPE svg PUBLIC "-//W3C//DTD SVG 1.1//EN" "http://www.w3.org/Graphics/SVG/1.1/DTD/svg11.dtd">
<svg width="100%" height="100%" viewBox="0 0 800 800" version="1.1" xmlns="http://www.w3.org/2000/svg" xmlns:xlink="http://www.w3.org/1999/xlink" xml:space="preserve" xmlns:serif="http://www.serif.com/" style="fill-rule:evenodd;clip-rule:evenodd;stroke-linejoin:round;stroke-miterlimit:2;">
    <g transform="matrix(1.02954,0,0,1.02954,-11.8013,-11.8013)">
        <path d="M432.825,369.725L362.6,369.725C362.6,430.275 362.325,490.45 362.325,551.075C363.15,559.3 363.6,568.875 363.6,578.55C363.6,598.8 361.575,618.575 357.7,637.675L358.025,635.775C347.725,657.3 321.15,654.55 309.1,650.775C297.825,644.725 288.9,635.55 283.325,624.4L283.175,624.05C282.075,621.7 280.75,619.7 279.175,617.9L279.2,617.925L222.175,653.075C231.35,672.825 245.525,688.925 263.1,700.2L263.55,700.475C282.625,711.15 305.425,717.425 329.675,717.425C341.775,717.425 353.525,715.85 364.7,712.925L363.75,713.15C388.45,706.95 408.575,690.9 420.1,669.55L420.325,669.075C429.3,646.225 434.475,619.75 434.475,592.075C434.475,582.375 433.825,572.825 432.6,563.45L432.725,564.55C433.1,500.375 432.725,436.175 432.725,371.5L432.825,369.725ZM713.475,596.075C708,561.875 685.725,533.125 619.65,506.325C596.65,495.55 571.1,488.05 563.5,470.7C561.925,466.75 561.025,462.175 561.025,457.4C561.025,454.3 561.4,451.3 562.125,448.425L562.075,448.675C567.275,434.925 580.35,425.3 595.65,425.3C600.625,425.3 605.35,426.3 609.625,428.125L609.4,428.025C623.2,432.775 634.1,442.875 639.775,455.825L639.9,456.15C672.2,435.025 672.2,435.025 694.725,421C689.325,411.775 683.25,403.775 676.375,396.575L676.425,396.625C657.25,376.275 630.125,363.625 600.025,363.625C595.75,363.625 591.525,363.875 587.4,364.375L587.9,364.325L565.875,367.1C544.475,371.95 526.2,383.075 512.55,398.4L512.475,398.5C499.1,415.125 491,436.475 491,459.725C491,491.7 506.325,520.1 530,538L530.25,538.175C572.9,570.05 635.25,577.05 643.225,607.05C650.725,643.6 616.05,655.325 581.8,651.1C557.875,645.65 538.275,630.35 527.2,609.8L526.975,609.375L469.8,642.2C476.525,655.6 484.975,667.05 495.075,676.825L495.1,676.85C549.45,731.7 685.35,728.9 709.75,645.475C712.575,636.375 714.2,625.925 714.2,615.1C714.2,607.6 713.425,600.275 711.925,593.225L712.05,593.925L713.475,596.075ZM25.1,25.1L774.875,25.1L774.875,774.875L25.1,774.875L25.1,25.1Z" style="fill:rgb(255,164,121);fill-rule:nonzero;"/>
    </g>
</svg>
