<?xml version="1.0" encoding="UTF-8" standalone="no"?>
<!DOCTYPE svg PUBLIC "-//W3C//DTD SVG 1.1//EN" "http://www.w3.org/Graphics/SVG/1.1/DTD/svg11.dtd">
<svg width="100%" height="100%" viewBox="0 0 800 800" version="1.1" xmlns="http://www.w3.org/2000/svg" xmlns:xlink="http://www.w3.org/1999/xlink" xml:space="preserve" xmlns:serif="http://www.serif.com/" style="fill-rule:evenodd;clip-rule:evenodd;stroke-linejoin:round;stroke-miterlimit:2;">
    <g transform="matrix(1.1168,0,0,1.1168,-46.5333,-46.9055)">
        <g id="SVGRepo_iconCarrier">
            <path d="M400,337C434.194,337.002 462.33,365.14 462.33,399.333C462.33,433.528 434.191,461.667 399.996,461.667C366.053,461.667 338.03,433.941 337.667,400C337.666,399.889 337.666,399.777 337.666,399.666C337.666,365.413 365.748,337.182 400,337M245.667,666.667C266.667,679.333 312.333,660 365.667,610C347.841,589.743 331.042,568.606 315.333,546.667C288.447,543.656 261.742,539.205 235.333,533.333C218.333,604.667 224.667,653.667 245.667,666.667M269.333,475.333L259.667,458.333C255.898,467.696 252.671,477.267 250,487C259,489 269,490.667 279.333,492.333L269.333,475.333M487.333,450L514.333,400L487.333,350C477.333,332.333 466.667,316.667 457,301C439,300 420,300 400,300L343,300C333.333,315.667 322.667,331.333 312.667,349L285.667,400L312.667,450C322.667,467.667 333.333,483.333 343,499L457,499C466.667,483.333 477.333,467.667 487.333,450M400,226C393.667,233.333 387,241 380.333,250L419.667,250C413,241 406.333,233.333 400,226M400,574C406.333,566.667 413,559 419.667,550L380.333,550C387,559 393.667,566.667 400,574M554,133.333C533.333,120.667 487.333,140 434.333,190C452.159,210.257 468.958,231.394 484.667,253.333C511.528,255.904 538.233,259.91 564.667,265.333C581.667,194 575.333,145 554,132M530.667,323.333L540.333,340.333C544.102,330.971 547.329,321.399 550,311.667C541,309.667 531,308 520.667,306.333L530.667,323.333M579,90C628,118 633.333,191.667 612.333,277.667C697,302.667 758,344.333 758,400.333C758,456.333 697,498 612.333,523C633,609 627.667,682.667 579,710.667C530.333,738.667 464,706.667 400,645.667C336,706.667 269.667,738.667 220.667,710.667C171.667,682.667 166.667,610.667 187.333,523C102.667,498 41.667,456.333 41.667,400.333C41.667,344.333 102.667,302.333 187.333,277.333C166.667,191.333 172,117.667 220.667,89.667C269.333,61.667 336,93.667 400,154.667C464,93.667 530.333,61.667 579,89.667M569.333,400C580.91,424.538 591.147,449.686 600,475.333C670,454.333 709.333,424.333 709.333,400C709.333,375.667 669,345.667 600,324.667C591.147,350.314 580.91,375.462 569.333,400M230.667,400C219.09,375.462 208.853,350.314 200,324.667C130,345.667 90.667,375.667 90.667,400C90.667,424.333 131,454.333 200,475.333C208.853,449.686 219.09,424.538 230.667,400M530.667,475.333L520.667,492.333C531,492.333 541,489 550,487C547.329,477.267 544.102,467.696 540.333,458.333L530.667,475.333M433.333,610C486.333,660 533.333,679.333 553,666.667C572.667,654 580.667,606 563.667,533.333C537.233,538.757 510.528,542.763 483.667,545.333C467.994,567.727 451.195,589.31 433.333,610M269.333,324.667L279.333,307.667C269,307.667 259,311 250,313C252.671,322.733 255.898,332.304 259.667,341.667L269.333,324.667M366.667,190C312.667,140 266.667,120.667 245.667,133.333C224.667,146 218.333,194 235.333,266.667C261.767,261.243 288.472,257.237 315.333,254.667C331.33,232.25 348.464,210.666 366.667,190Z" style="fill:rgb(255,164,121);fill-rule:nonzero;"/>
        </g>
    </g>
</svg>
