<?xml version="1.0" encoding="UTF-8" standalone="no"?>
<!DOCTYPE svg PUBLIC "-//W3C//DTD SVG 1.1//EN" "http://www.w3.org/Graphics/SVG/1.1/DTD/svg11.dtd">
<svg width="100%" height="100%" viewBox="0 0 800 800" version="1.1" xmlns="http://www.w3.org/2000/svg" xmlns:xlink="http://www.w3.org/1999/xlink" xml:space="preserve" xmlns:serif="http://www.serif.com/" style="fill-rule:evenodd;clip-rule:evenodd;stroke-linejoin:round;stroke-miterlimit:2;">
    <g transform="matrix(1.16017,0,0,1.16012,-64.0799,-64.0562)">
        <path d="M67.335,399.983C67.335,531.659 143.845,645.466 254.842,699.382L96.152,264.604C77.698,305.962 67.335,351.771 67.335,399.983ZM624.578,383.204C624.578,342.074 609.811,313.613 597.156,291.473C580.296,264.052 564.49,240.855 564.49,213.452C564.49,182.863 587.671,154.404 620.337,154.404C621.832,154.404 623.229,154.582 624.643,154.663C565.48,100.44 486.616,67.318 400,67.318C283.772,67.318 181.531,126.951 122.044,217.251C129.858,217.512 137.216,217.674 143.454,217.674C178.25,217.674 232.132,213.451 232.132,213.451C250.048,212.379 252.177,238.727 234.259,240.854C234.259,240.854 216.228,242.966 196.182,244.005L317.331,604.353L390.121,386.013L338.302,244.005C320.368,242.966 303.409,240.854 303.409,240.854C285.491,239.781 287.587,212.378 305.521,213.451C305.521,213.451 360.443,217.674 393.142,217.674C427.921,217.674 481.803,213.451 481.803,213.451C499.737,212.379 501.849,238.727 483.915,240.854C483.915,240.854 465.868,242.966 445.855,244.005L566.079,601.607L599.266,490.755C616.13,447.514 624.578,411.663 624.578,383.204ZM405.848,429.077L306.027,719.135C335.836,727.889 367.366,732.682 400,732.682C438.76,732.682 475.91,725.99 510.478,713.823C509.6,712.393 508.772,710.883 508.107,709.227L405.848,429.077ZM691.926,240.4C693.355,250.991 694.168,262.362 694.168,274.594C694.168,308.349 687.832,346.313 668.875,393.746L567.267,687.523C666.163,629.855 732.665,522.725 732.665,399.983C732.665,342.154 717.884,287.768 691.926,240.4Z" style="fill:rgb(255,164,121);fill-rule:nonzero;"/>
    </g>
</svg>
