<?xml version="1.0" encoding="UTF-8" standalone="no"?>
<!DOCTYPE svg PUBLIC "-//W3C//DTD SVG 1.1//EN" "http://www.w3.org/Graphics/SVG/1.1/DTD/svg11.dtd">
<svg width="100%" height="100%" viewBox="0 0 50 50" version="1.1" xmlns="http://www.w3.org/2000/svg" xmlns:xlink="http://www.w3.org/1999/xlink" xml:space="preserve" xmlns:serif="http://www.serif.com/" style="fill-rule:evenodd;clip-rule:evenodd;stroke-linejoin:round;stroke-miterlimit:2;">
    <path d="M50,0L0,0L0,50L50,50L50,0ZM15.138,19.19L8.26,19.19L8.26,41.202L15.138,41.202L15.138,19.19ZM33.925,18.984C29.983,18.984 27.515,21.134 27.061,22.65L27.061,19.19L19.328,19.19C19.425,21.024 19.328,41.202 19.328,41.202L27.061,41.202L27.061,29.307C27.061,28.632 27.033,27.97 27.226,27.502C27.75,26.178 28.894,24.8 30.947,24.8C33.635,24.8 34.848,26.84 34.848,29.817L34.848,41.202L42.649,41.202L42.649,28.963C42.649,22.154 38.818,18.984 33.925,18.984ZM11.555,8.798C9.019,8.798 7.351,10.438 7.351,12.616C7.351,14.752 8.963,16.434 11.458,16.434L11.513,16.434C14.104,16.434 15.717,14.739 15.703,12.616C15.648,10.438 14.091,8.798 11.555,8.798Z" style="fill:rgb(255,164,121);"/>
</svg>
