<?xml version="1.0" encoding="UTF-8" standalone="no"?>
<!DOCTYPE svg PUBLIC "-//W3C//DTD SVG 1.1//EN" "http://www.w3.org/Graphics/SVG/1.1/DTD/svg11.dtd">
<svg width="100%" height="100%" viewBox="0 0 50 50" version="1.1" xmlns="http://www.w3.org/2000/svg" xmlns:xlink="http://www.w3.org/1999/xlink" xml:space="preserve" xmlns:serif="http://www.serif.com/" style="fill-rule:evenodd;clip-rule:evenodd;stroke-linejoin:round;stroke-miterlimit:2;">
    <path d="M50,0L0,0L0,50L50,50L50,0ZM25,6.724C35.094,6.724 43.276,15.113 43.276,25.462C43.276,33.739 38.045,40.761 30.788,43.241C29.861,43.426 29.532,42.841 29.532,42.342C29.532,41.724 29.554,39.707 29.554,37.199C29.554,35.452 28.97,34.312 28.313,33.73C32.383,33.266 36.66,31.682 36.66,24.485C36.66,22.438 35.951,20.767 34.778,19.455C34.968,18.982 35.595,17.075 34.599,14.495C34.599,14.495 33.067,13.992 29.578,16.416C28.118,16.001 26.553,15.793 25,15.785C23.447,15.793 21.884,16.001 20.426,16.416C16.933,13.992 15.398,14.495 15.398,14.495C14.405,17.075 15.032,18.982 15.221,19.455C14.053,20.767 13.338,22.438 13.338,24.485C13.338,31.663 17.606,33.272 21.665,33.745C21.142,34.213 20.669,35.039 20.504,36.251C19.462,36.729 16.816,37.557 15.186,34.693C15.186,34.693 14.219,32.893 12.384,32.762C12.384,32.762 10.602,32.738 12.26,33.9C12.26,33.9 13.457,34.476 14.288,36.642C14.288,36.642 15.361,39.986 20.446,38.853C20.455,40.419 20.471,41.896 20.471,42.342C20.471,42.837 20.135,43.417 19.223,43.243C11.96,40.767 6.724,33.741 6.724,25.462C6.724,15.113 14.908,6.724 25,6.724Z" style="fill:rgb(255,164,121);"/>
</svg>
