<?xml version="1.0" encoding="UTF-8" standalone="no"?>
<!DOCTYPE svg PUBLIC "-//W3C//DTD SVG 1.1//EN" "http://www.w3.org/Graphics/SVG/1.1/DTD/svg11.dtd">
<svg width="100%" height="100%" viewBox="0 0 28 28" version="1.1" xmlns="http://www.w3.org/2000/svg" xmlns:xlink="http://www.w3.org/1999/xlink" xml:space="preserve" xmlns:serif="http://www.serif.com/" style="fill-rule:evenodd;clip-rule:evenodd;stroke-linecap:round;stroke-linejoin:round;">
    <g transform="matrix(1,0,0,1,-203.892,-672.454)">
        <g transform="matrix(1,0,0,1,213.719,685.244)">
            <g transform="matrix(1.47518,0,0,1.47518,-13.5637,-16.5266)">
                <path d="M20.665,10L14.6,10C14.04,10 13.76,10 13.546,9.891C13.358,9.795 13.205,9.642 13.109,9.454C13,9.24 13,8.96 13,8.4L13,5.232M10,5L17.8,5C18.92,5 19.48,5 19.908,5.218C20.284,5.41 20.59,5.716 20.782,6.092C21,6.52 21,7.08 21,8.2L21,17.8C21,18.92 21,19.48 20.782,19.908C20.59,20.284 20.284,20.59 19.908,20.782C19.48,21 18.92,21 17.8,21L6.2,21C5.08,21 4.52,21 4.092,20.782C3.716,20.59 3.41,20.284 3.218,19.908C3,19.48 3,18.92 3,17.8L3,8.2C3,7.08 3,6.52 3.218,6.092C3.41,5.716 3.716,5.41 4.092,5.218C4.432,5.045 4.856,5.009 5.577,5.002C5.708,5.001 5.849,5 6,5M10,5L10,4.6C10,4.04 10,3.76 9.891,3.546C9.795,3.358 9.642,3.205 9.454,3.109C9.24,3 8.96,3 8.4,3L7.6,3C7.04,3 6.76,3 6.546,3.109C6.358,3.205 6.205,3.358 6.109,3.546C6,3.76 6,4.04 6,4.6L6,5M10,5L10,15.4C10,15.96 10,16.24 9.891,16.454C9.795,16.642 9.642,16.795 9.454,16.891C9.24,17 8.96,17 8.4,17L7.6,17C7.04,17 6.76,17 6.546,16.891C6.358,16.795 6.205,16.642 6.109,16.454C6,16.24 6,15.96 6,15.4L6,4.6M14,14L14,13.99L14,14ZM14.01,17.01L14.01,17L14.01,17.01ZM17.01,17.01L17.01,17L17.01,17.01ZM17,14.01L17.01,14.01L17,14.01Z" style="fill:none;fill-rule:nonzero;stroke:rgb(255,164,121);stroke-width:0.93px;"/>
            </g>
        </g>
    </g>
</svg>
