<?xml version="1.0" encoding="UTF-8" standalone="no"?>
<!DOCTYPE svg PUBLIC "-//W3C//DTD SVG 1.1//EN" "http://www.w3.org/Graphics/SVG/1.1/DTD/svg11.dtd">
<svg width="100%" height="100%" viewBox="0 0 50 50" version="1.1" xmlns="http://www.w3.org/2000/svg" xmlns:xlink="http://www.w3.org/1999/xlink" xml:space="preserve" xmlns:serif="http://www.serif.com/" style="fill-rule:evenodd;clip-rule:evenodd;stroke-linejoin:round;stroke-miterlimit:2;">
    <path d="M50,0L0,0L0,50L50,50L50,0ZM25,43.212C35.058,43.212 43.212,35.058 43.212,25C43.212,14.942 35.058,6.788 25,6.788C14.942,6.788 6.788,14.942 6.788,25C6.788,35.058 14.942,43.212 25,43.212ZM16.07,36.915C18.558,38.783 21.65,39.889 25,39.889C27.018,39.889 28.942,39.488 30.697,38.76C29.912,34.995 28.894,31.468 27.693,28.182C27.153,28.355 26.624,28.551 26.105,28.769C22.278,30.381 18.938,33.22 16.07,36.915ZM30.948,27.444C32.033,30.467 32.968,33.675 33.72,37.07C36.669,34.936 38.804,31.748 39.575,28.058C36.447,27.25 33.579,27.087 30.948,27.444ZM13.649,34.636C11.442,32.039 10.111,28.675 10.111,25L10.111,24.996C16.081,24.937 20.986,24.145 25.401,22.646C25.773,23.445 26.134,24.261 26.483,25.093C25.92,25.28 25.366,25.488 24.821,25.718C20.433,27.564 16.731,30.73 13.649,34.636ZM29.731,24.282C32.871,23.744 36.257,23.852 39.887,24.724C39.831,21.646 38.841,18.796 37.188,16.446C34.331,18.466 31.503,20.135 28.495,21.447C28.922,22.371 29.334,23.316 29.731,24.282ZM23.917,19.65C20.029,20.918 15.713,21.597 10.482,21.68C11.519,17.129 14.641,13.37 18.79,11.464C20.612,13.928 22.34,16.657 23.917,19.65ZM27.037,18.471C29.781,17.287 32.362,15.78 34.98,13.951C32.34,11.564 28.84,10.111 25,10.111C24.009,10.111 23.041,10.208 22.104,10.392C23.858,12.853 25.518,15.546 27.037,18.471Z" style="fill:rgb(255,164,121);"/>
</svg>
